<svg xmlns="http://www.w3.org/2000/svg" viewBox="0 0 64 64" role="img" aria-labelledby="title desc">
  <title id="title">Logo Maison Florale</title>
  <desc id="desc">Icone florale elegante avec feuille verte.</desc>
  <circle cx="32" cy="32" r="30" fill="#fdf0f4" />
  <path d="M32 20c3 0 5 2 5 5-2 1-4 1-5 1s-3 0-5-1c0-3 2-5 5-5z" fill="#d99cab" />
  <path d="M22 28c3-2 6-1 8 2-1 2-2 3-3 4-2 1-4 1-6 0-1-3-1-5 1-6z" fill="#e8b7c4" />
  <path d="M42 28c2 1 2 3 1 6-2 1-4 1-6 0-1-1-2-2-3-4 2-3 5-4 8-2z" fill="#e8b7c4" />
  <path d="M26 38c2-1 4-1 6 1 2-2 4-2 6-1 0 2-1 4-3 5-2 1-4 1-6 0-2-1-3-3-3-5z" fill="#d99cab" />
  <circle cx="32" cy="32" r="3.5" fill="#7aa37a" />
  <path d="M32 36v10" stroke="#4f7450" stroke-width="2" stroke-linecap="round" />
  <path d="M32 43c-3-1-5 0-6 3 3 1 5 1 6-1z" fill="#7aa37a" />
  <path d="M32 43c3-1 5 0 6 3-3 1-5 1-6-1z" fill="#7aa37a" />
</svg>
